<svg width="62" height="13" viewBox="0 0 62 13" fill="none" xmlns="http://www.w3.org/2000/svg">
<path d="M4.912 12.096C7.776 12.096 9.088 10.688 9.088 9.04C9.088 4.96 2.192 6.816 2.192 3.744C2.192 2.624 3.104 1.712 5.152 1.712C6.144 1.712 7.264 2.016 8.224 2.64L8.624 1.696C7.728 1.072 6.416 0.704 5.152 0.704C2.304 0.704 1.024 2.128 1.024 3.776C1.024 7.92 7.92 6.032 7.92 9.104C7.92 10.208 7.008 11.088 4.912 11.088C3.44 11.088 2.016 10.512 1.216 9.728L0.752 10.64C1.584 11.504 3.232 12.096 4.912 12.096ZM16.5318 12.096C18.1798 12.096 19.6518 11.536 20.6438 10.448L19.8918 9.696C18.9798 10.64 17.8598 11.04 16.5798 11.04C13.8758 11.04 11.8438 9.056 11.8438 6.4C11.8438 3.744 13.8758 1.76 16.5798 1.76C17.8598 1.76 18.9798 2.16 19.8918 3.088L20.6438 2.336C19.6518 1.248 18.1798 0.704 16.5478 0.704C13.1718 0.704 10.6758 3.12 10.6758 6.4C10.6758 9.68 13.1718 12.096 16.5318 12.096ZM31.2545 12H32.5025L27.3825 0.799999H26.2145L21.0945 12H22.3265L23.6705 9.008H29.9105L31.2545 12ZM24.1025 8.048L26.7905 2.032L29.4785 8.048H24.1025ZM42.5473 0.799999V9.888L35.3313 0.799999H34.3553V12H35.5393V2.912L42.7393 12H43.7153V0.799999H42.5473ZM47.3709 12H51.9309C55.5149 12 57.9309 9.696 57.9309 6.4C57.9309 3.104 55.5149 0.799999 51.9309 0.799999H47.3709V12ZM48.5549 10.976V1.824H51.8669C54.8429 1.824 56.7629 3.712 56.7629 6.4C56.7629 9.088 54.8429 10.976 51.8669 10.976H48.5549ZM60.5896 12H61.7736V0.799999H60.5896V12Z" fill="#533738"/>
</svg>
